<svg xmlns="http://www.w3.org/2000/svg" width="93.202" height="42" viewBox="0 0 93.202 42">
  <defs>
    <style>
      .cls-1 {
        fill: #103380;
      }

      .cls-1, .cls-2 {
        stroke: rgba(0,0,0,0);
        stroke-miterlimit: 10;
      }

      .cls-2 {
        fill: #231815;
      }
    </style>
  </defs>
  <g id="组_115" data-name="组 115" transform="translate(0.5 0.5)">
    <path id="联合_33" data-name="联合 33" class="cls-1" d="M-444.3-30.375a3.321,3.321,0,0,1-3.51-3.093V-52.907A3.32,3.32,0,0,1-444.3-56h85.183a3.349,3.349,0,0,1,3.509,3.093v19.438a3.35,3.35,0,0,1-3.509,3.093Zm53.88-4.757c-.6.185-.923.324-.923.508a5.757,5.757,0,0,0,.508,1.293c.416.877.741,1.292.969,1.292s.509-.185.832-.6a19.14,19.14,0,0,1,2.957-2.586c.507-.37,1.058-.739,1.615-1.154a16.239,16.239,0,0,0,2.262,3.231c.185.231.369.37.461.37.139,0,.232-.139.278-.416a2.6,2.6,0,0,1,1.663-1.8l.413-.14c.094-.092.187-.184.187-.276s-.093-.185-.187-.277a3.515,3.515,0,0,0-.736-.369,10.48,10.48,0,0,1-3.694-3.556L-384.467-41l3.323-1.338a2.809,2.809,0,0,1,.877-.23c.324-.046.464-.092.464-.184,0-.139-.094-.277-.323-.415a16.543,16.543,0,0,0-2.448-1.616c-.045,0-.138.046-.185.23a15.475,15.475,0,0,1-1.895,2.956,18.333,18.333,0,0,1-.922-3.925,20.3,20.3,0,0,0,3.646-.739l.646-.045.647.092c.276,0,.368-.092.368-.277,0-.139-.092-.324-.368-.508a16.131,16.131,0,0,0-1.939-1.895c-.091,0-.138.048-.232.14a15.617,15.617,0,0,1-3.275,1.938c-.556.278-1.111.464-1.667.693l-2.075-1.107a21.187,21.187,0,0,0,1.8-2.495h8.4a.411.411,0,0,0,.229-.046.2.2,0,0,0,.187-.185c0-.092-.093-.184-.187-.369a12.438,12.438,0,0,0-.969-.831,4.646,4.646,0,0,0-1.477-.923c-.231,0-.414.138-.6.416l-.878,1.154h-4.295l.787-1.384a1.475,1.475,0,0,1,.691-.785h.049c.274-.139.414-.277.414-.415s-.14-.231-.414-.324a.284.284,0,0,0-.187-.047,16.109,16.109,0,0,0-2.816-.738c-.139,0-.184.091-.23.276-.554,2.077-.968,3.694-1.385,4.8a11.075,11.075,0,0,0-1.524-1.294,2.246,2.246,0,0,0-.877-.46c-.139,0-.278.091-.416.322l-.786,1.062h-3.923l-3.28-.138.739,1.2,1.846-.231v1.985a46.674,46.674,0,0,1-.462,7.711,20.714,20.714,0,0,1-1.893,5.863.885.885,0,0,0-.23.6c.093.092.14.185.185.185.185,0,.509-.277,1.061-.832a13.5,13.5,0,0,0,1.709-2.215,2.345,2.345,0,0,1,1.984,1.523,5.352,5.352,0,0,0,.278.508.919.919,0,0,0,.647.275,2.82,2.82,0,0,0,2.078-.691.157.157,0,0,1,.046-.093,3.044,3.044,0,0,0,.739-1.939l.323-7.527a2.356,2.356,0,0,1,.139-.323,1.11,1.11,0,0,0,.415-.739c0-.092-.139-.276-.368-.462l.136-.138a13.777,13.777,0,0,0,1.71-1.616Zm-23.777.508c0,.045.092.139.275.231a2.677,2.677,0,0,1,1.571,1.524c.184.554.462.83.877.83a4.655,4.655,0,0,0,2.494-.645,2.573,2.573,0,0,0,.785-2.17v-6.741l.323,1.292a14.678,14.678,0,0,0,1.616,3.186,19.364,19.364,0,0,0,1.569,2.17c.139.139.232.23.277.23.185,0,.278-.184.417-.553a3.187,3.187,0,0,1,2.17-1.8c.185-.046.322-.139.322-.277a.235.235,0,0,0-.183-.23,10.721,10.721,0,0,1-4.3-3.555l-.276-.416c-.186-.325-.368-.646-.554-1.016l.554-.369,2.541-1.8a1.872,1.872,0,0,1,.875-.37c.324-.093.509-.184.509-.369,0-.093-.138-.23-.323-.369a22.971,22.971,0,0,0-2.5-1.662c-.045,0-.09.093-.183.323-.323.833-.6,1.57-.923,2.263a16.89,16.89,0,0,1-.878,1.616,18.245,18.245,0,0,1-1.062-3.554v-1.755h6.095c.139,0,.185-.046.185-.093,0-.231-.462-.739-1.432-1.524a2.107,2.107,0,0,0-.785-.462c-.094,0-.233.139-.371.323l-.737.97H-408.2v-3.14a1.1,1.1,0,0,1,.091-.6,1.033,1.033,0,0,0,.232-.693c0-.23-.184-.369-.555-.415-1.292-.093-2.171-.185-2.586-.185-.138,0-.183.138-.183.415V-49.4h-1.524l-1.986-.093-.692-.046h-.554l.554.878.184.324.508-.093,1.986-.185h1.524v6.464a23.875,23.875,0,0,1-3.51,2.539,4.928,4.928,0,0,1-.692.37c-.229.139-.461.23-.646.324-.371.045-.554.322-.554.738a5.072,5.072,0,0,0,.6,1.939c.231.508.415.831.6.923h.092c.139,0,.281-.185.509-.554,0-.094.045-.14.092-.233.509-.737,1.707-2.308,3.51-4.754V-35.5a.565.565,0,0,1-.647.647h-1.984C-414.064-34.853-414.2-34.762-414.2-34.623Zm-19.023,1.847c0,.184.138.277.37.277a4.913,4.913,0,0,0,1.984-.369c.414-.278.646-.508.646-.785V-44.919a4.421,4.421,0,0,1,1.661,1.432,9.145,9.145,0,0,1,1.2,3.092c.23,1.109.694,1.664,1.385,1.664a1.464,1.464,0,0,0,1.248-.555,1.984,1.984,0,0,0,.462-1.339,2.95,2.95,0,0,0-.6-1.846,9.971,9.971,0,0,0-2.679-2.079,7.378,7.378,0,0,0-2.678-.877v-.231a.642.642,0,0,1,.231-.462.7.7,0,0,0,.321-.554c0-.184-.136-.322-.367-.416l-.923-.184c.6-1.247,1.291-2.679,1.94-4.249h4.846c.185,0,.277-.045.277-.182q0-.351-1.8-1.8a1.821,1.821,0,0,0-1.016-.508c-.138,0-.276.138-.416.37l-.968,1.384h-5.035l-2.907-.185h-.322l.137.278a8.119,8.119,0,0,0-1.245-1.154,1.591,1.591,0,0,0-.878-.509c-.092,0-.232.093-.369.323l-.831,1.154h-2.679l-3.278-.185.738,1.2,2.123-.231v4.94l-2.769-.139.739,1.2,2.03-.23v5.864l-2.492.506c-.186.048-.277.14-.277.28a6.525,6.525,0,0,0,.6,2.123c.278.6.508.878.692.878a1.294,1.294,0,0,0,.6-.278c1.848-1.063,3.694-2.125,5.586-3.094L-439-37.9a1.339,1.339,0,0,0-.37.832.35.35,0,0,0,.186.093,1.86,1.86,0,0,0,.6-.278,25.851,25.851,0,0,0,2.54-2.446,24.014,24.014,0,0,0,2.816-3.509Zm67.641-10.9h1.66a29.431,29.431,0,0,0,.694,5.448,12.42,12.42,0,0,0,2.585,4.431,3.189,3.189,0,0,0,2.31,1.156c.69,0,1.016-.139,1.016-.508a3.089,3.089,0,0,0-.278-1.015,5.224,5.224,0,0,1-.464-2.262,7.469,7.469,0,0,1,.185-1.8c.047-.277.093-.507.093-.6,0-.275-.093-.415-.278-.415-.09,0-.183.094-.275.324l-.832,1.292c-.185.324-.37.463-.507.463-.233,0-.554-.6-.88-1.848-.461-1.615-.692-5.356-.692-11.312,0-.137.139-.276.37-.508.507-.461.786-.784.786-.969s-.464-.554-1.34-1.154a4.057,4.057,0,0,0-1.848-.878.508.508,0,0,0-.461.276l-.646.923h-5.449l-2.77-.092.648,1.018,1.8-.186v7.433l-2.908-.139h-.278l.278.416.46.739,2.448-.23v10.617c0,.231.138.371.415.371a6.6,6.6,0,0,0,2.261-.184.687.687,0,0,0,.28-.6v-10.2Zm-11.22-2.356v8.958l-.554.462c-.185.138-.276.277-.276.37a6.605,6.605,0,0,0,.967,1.616c.556.83.925,1.247,1.064,1.247s.322-.139.553-.462a23.9,23.9,0,0,1,1.986-2.585c.6-.693,1.292-1.525,2.169-2.493a.217.217,0,0,0-.231-.23l-1.938.831-.74.323V-45.1a.253.253,0,0,1,.185-.276c.23-.139.414-.277.554-.37a.332.332,0,0,0,.184-.277.58.58,0,0,0-.184-.321,5.46,5.46,0,0,0-.694-.6,5.4,5.4,0,0,0-1.94-1.108,1.046,1.046,0,0,0-.644.369l-.923.923-2.126-.277h-.183l.183.6.187.6,1.292-.185Zm-43.907,7.249-2.172.509c-.229.092-.322.185-.322.368a7.677,7.677,0,0,0,1.015,2.263c.184.277.323.415.464.415.046,0,.136-.046.23-.185.785-.646,2.724-2.032,5.815-4.109l.278-.139c.184-.091.278-.185.278-.323,0-.092-.094-.185-.278-.185l-2.309.646v-4.94h3.047c.139,0,.186,0,.186-.093s-.048-.185-.232-.415a7.941,7.941,0,0,0-.692-.739l-.323-.324c-.323-.321-.554-.461-.694-.461-.091,0-.229.092-.322.323l-.691.968h-.278v-5.355h3.324c.14,0,.186-.046.186-.139s-.139-.323-.509-.645a8.853,8.853,0,0,0-.692-.646c-.092-.094-.138-.139-.229-.231a1.806,1.806,0,0,0-.788-.417c-.091,0-.229.093-.367.277l-.74,1.017h-2.632l-3.23-.186.738,1.2,1.939-.185V-45.2l-2.587-.184.74,1.2,1.848-.185Zm5.492-7.432c0,.139.094.277.325.369a.63.63,0,0,1,.184.139,2.522,2.522,0,0,1,.785,2.123c0,.647.463,1.016,1.34,1.016a1.146,1.146,0,0,0,.922-.369,1.518,1.518,0,0,0,.371-1.015,2.247,2.247,0,0,0-1.063-1.848,4.669,4.669,0,0,0-2.355-.692h-.136C-415.08-46.489-415.219-46.4-415.219-46.211Zm37.954-7.25c0,.14.139.276.369.415a2.859,2.859,0,0,1,1.108,2.632q0,1.247,1.524,1.248a1.321,1.321,0,0,0,1.061-.417.614.614,0,0,1,.14-.184,1.765,1.765,0,0,0,.278-1.016,2.467,2.467,0,0,0-.278-1.107,3.259,3.259,0,0,0-.924-1.062,5.387,5.387,0,0,0-2.816-.785C-377.126-53.737-377.265-53.645-377.265-53.461Zm-30.8.461c0,.094.092.185.229.278.416.276.6.877.647,1.753a.976.976,0,0,0,.923,1.11c.092,0,.23.046.37.046a1.226,1.226,0,0,0,1.015-.416,1.523,1.523,0,0,0,.368-1.016,1.839,1.839,0,0,0-.921-1.477,6.5,6.5,0,0,0-.832-.368,4.143,4.143,0,0,0-1.293-.186C-407.876-53.276-408.06-53.185-408.06-53Zm9.741-.737c0,.093.094.184.276.323.6.277.878.968.925,1.985a1.043,1.043,0,0,0,.83,1.154,2.275,2.275,0,0,0,.554.046,1.359,1.359,0,0,0,1.11-.369,1.587,1.587,0,0,0,.413-1.106,1.973,1.973,0,0,0-1.106-1.664,4.314,4.314,0,0,0-.971-.415,4.445,4.445,0,0,0-1.57-.231C-398.18-54.014-398.319-53.923-398.319-53.737Zm10.8,8.356,1.016-.047a32.227,32.227,0,0,0,.418,4.017,13.561,13.561,0,0,0,.6,2.54,13.91,13.91,0,0,0,.83,2.078l-1.429.554-1.434.554Zm-10.8,9.6a15.1,15.1,0,0,0,1.246-2.771,19.261,19.261,0,0,0,.786-4.293c.045-.554.094-1.156.139-1.755h1.2l-.368,7.618a1.1,1.1,0,0,1-.417.923,1.172,1.172,0,0,1-.553.23.892.892,0,0,1-.37.047Zm-41.323-10.066h3.185c.095,0,.187,0,.187-.092,0-.185-.464-.74-1.387-1.57a1.582,1.582,0,0,0-.783-.46c-.094,0-.187.091-.323.322l-.695,1.062h-.185v-5.033h3.6c.094,0,.094-.047.138-.091l.278.459,2.491-.277h.742a88.952,88.952,0,0,1-3.6,8.589l-.047.046-.968,1.847-2.633.554Zm74.751.508a2.239,2.239,0,0,0-.692-.464c-.046,0-.094-.045-.139-.045-.093,0-.232.139-.37.323l-.739,1.062h-.367V-51.89h3.091c0,2.909.048,5.4.139,7.433Zm-27.98,0a5.737,5.737,0,0,0-.646-.464,2.231,2.231,0,0,0-.923-.322.563.563,0,0,0-.369.185l-.646.553h-.646v-3.325h5.216l-.139.324a17.184,17.184,0,0,1-1.571,3.231Z" transform="translate(447.813 56)"/>
    <path id="联合_32" data-name="联合 32" class="cls-2" d="M-366.15-43.434l-.166-1.471a4.15,4.15,0,0,0,.793.087,1.188,1.188,0,0,0,.971-.383,2.734,2.734,0,0,0,.481-.98l-2.7-7.119h2l1.7,5.04,1.655-5.04h1.947l-2.507,6.831-.448,1.237a5,5,0,0,1-.469.949,2.053,2.053,0,0,1-.517.532,2.243,2.243,0,0,1-.715.318,3.714,3.714,0,0,1-.958.113A4.988,4.988,0,0,1-366.15-43.434Zm-19.784-3.2a1.966,1.966,0,0,1-.63-1.5,2.039,2.039,0,0,1,.285-1.072,1.881,1.881,0,0,1,.807-.723,6.333,6.333,0,0,1,1.493-.438,10.018,10.018,0,0,0,1.823-.461v-.185a.976.976,0,0,0-.266-.773,1.609,1.609,0,0,0-1.011-.23,1.349,1.349,0,0,0-.783.2,1.383,1.383,0,0,0-.454.692l-1.7-.307a2.633,2.633,0,0,1,.988-1.524,3.6,3.6,0,0,1,2.084-.5,4.492,4.492,0,0,1,1.872.3,1.876,1.876,0,0,1,.866.756,3.862,3.862,0,0,1,.251,1.681l-.021,2.191a7.544,7.544,0,0,0,.092,1.38,4.02,4.02,0,0,0,.336.953h-1.859c-.046-.123-.108-.309-.178-.554-.031-.112-.054-.185-.068-.221a3.351,3.351,0,0,1-1.03.7,2.944,2.944,0,0,1-1.168.234A2.411,2.411,0,0,1-385.934-46.637Zm2.636-2.686a3.39,3.39,0,0,0-1.021.328.781.781,0,0,0-.366.66.923.923,0,0,0,.292.683,1.033,1.033,0,0,0,.749.287,1.612,1.612,0,0,0,.968-.335,1.186,1.186,0,0,0,.449-.62,3.712,3.712,0,0,0,.073-.917v-.374Q-382.516-49.491-383.3-49.323Zm-28.891,2.072a4.069,4.069,0,0,1-.7-2.445,3.927,3.927,0,0,1,.922-2.765,3.04,3.04,0,0,1,2.332-1,3.155,3.155,0,0,1,2.5,1.045,4.623,4.623,0,0,1,.874,3.2h-4.7a1.893,1.893,0,0,0,.454,1.3,1.423,1.423,0,0,0,1.084.464,1.155,1.155,0,0,0,.742-.239,1.493,1.493,0,0,0,.454-.776l1.872.315a3.075,3.075,0,0,1-1.139,1.567,3.344,3.344,0,0,1-1.948.537A3.182,3.182,0,0,1-412.188-47.251Zm1.653-4.325a1.735,1.735,0,0,0-.4,1.218h2.807a1.809,1.809,0,0,0-.421-1.239,1.287,1.287,0,0,0-.976-.425A1.3,1.3,0,0,0-410.535-51.576Zm-20.208,4.939a1.973,1.973,0,0,1-.632-1.5,2.024,2.024,0,0,1,.287-1.072,1.879,1.879,0,0,1,.8-.723,6.428,6.428,0,0,1,1.493-.438,10.085,10.085,0,0,0,1.826-.461v-.185a.97.97,0,0,0-.267-.773,1.6,1.6,0,0,0-1.008-.23,1.34,1.34,0,0,0-.782.2,1.355,1.355,0,0,0-.455.692l-1.705-.307a2.652,2.652,0,0,1,.99-1.524,3.6,3.6,0,0,1,2.084-.5,4.5,4.5,0,0,1,1.874.3,1.862,1.862,0,0,1,.864.756,3.866,3.866,0,0,1,.25,1.681l-.02,2.191a7.771,7.771,0,0,0,.089,1.38,4,4,0,0,0,.338.953h-1.859c-.048-.123-.109-.309-.179-.554-.031-.112-.053-.185-.066-.221a3.366,3.366,0,0,1-1.03.7,2.95,2.95,0,0,1-1.171.234A2.409,2.409,0,0,1-430.743-46.637Zm2.636-2.686a3.38,3.38,0,0,0-1.022.328.777.777,0,0,0-.368.66.923.923,0,0,0,.292.683,1.043,1.043,0,0,0,.751.287,1.62,1.62,0,0,0,.969-.335,1.163,1.163,0,0,0,.447-.62,3.653,3.653,0,0,0,.074-.917v-.374Q-427.324-49.491-428.107-49.323Zm56.765,3.121V-56h1.878v9.8Zm-5.46,0v-7.1h1.879v7.1Zm-20.8,0V-56h3.615a7.043,7.043,0,0,1,1.865.186,3.28,3.28,0,0,1,1.478.9,4.3,4.3,0,0,1,.937,1.587,7.291,7.291,0,0,1,.319,2.318,6.5,6.5,0,0,1-.3,2.083,4.356,4.356,0,0,1-1.051,1.732,3.491,3.491,0,0,1-1.391.783,6,6,0,0,1-1.751.206Zm1.978-1.651h1.476a5.436,5.436,0,0,0,1.2-.094,1.821,1.821,0,0,0,.8-.408,2.074,2.074,0,0,0,.519-.947,6.433,6.433,0,0,0,.2-1.794,5.91,5.91,0,0,0-.2-1.745,2.274,2.274,0,0,0-.562-.949,1.881,1.881,0,0,0-.916-.461,8.9,8.9,0,0,0-1.624-.094h-.888Zm-7.446,1.651V-56h1.878v9.8Zm-16.587,0-2.86-7.1h1.973l1.337,3.623.387,1.21c.1-.309.167-.511.194-.608.061-.2.127-.4.2-.6l1.353-3.623h1.931l-2.82,7.1Zm-18.284,0v-7.1h1.745v1.009a3.022,3.022,0,0,1,.805-.941,1.471,1.471,0,0,1,.813-.228,2.385,2.385,0,0,1,1.236.354l-.581,1.637a1.65,1.65,0,0,0-.882-.307,1.045,1.045,0,0,0-.668.216,1.484,1.484,0,0,0-.431.788,11.143,11.143,0,0,0-.158,2.378V-46.2Zm-6.962,0v-8.141h-2.907V-56h7.787v1.658h-2.9V-46.2Zm68.1-8.06V-56h1.879v1.739Z" transform="translate(449.981 84.321)"/>
  </g>
</svg>
